<svg xmlns="http://www.w3.org/2000/svg" enable-background="new 0 0 50 50"><path fill="rgba(0, 0, 0, 0.7)" d="M41.7144335,14.0128626 C43.7913673,17.1660627 45,20.9418857 45,25 C45,36.045695 36.045695,45 25,45 C13.954305,45 5,36.045695 5,25 C5,13.954305 13.954305,5 25,5 C30.3675554,5 35.2412528,7.11445698 38.833577,10.5558555 L27.0540572,20.4400462 C26.4274333,20.1573388 25.7320909,20 25,20 C22.2385763,20 20,22.2385763 20,25 C20,27.7614237 22.2385763,30 25,30 C27.7614237,30 30,27.7614237 30,25 C30,24.6353607 29.9609669,24.2798381 29.8868512,23.9373826 L41.7144335,14.0128626 Z M25,50 C38.8071187,50 50,38.8071187 50,25 C50,11.1928813 38.8071187,0 25,0 C11.1928813,0 0,11.1928813 0,25 C0,38.8071187 11.1928813,50 25,50 Z"/></svg>
