<svg xmlns="http://www.w3.org/2000/svg" enable-background="new 0 0 50 50"><path fill="rgba(0, 0, 0, 0.7)" d="M25,50 C38.8071187,50 50,38.8071187 50,25 C50,11.1928813 38.8071187,0 25,0 C11.1928813,0 0,11.1928813 0,25 C0,38.8071187 11.1928813,50 25,50 Z M37,16 L37,36 L27,25.6180053 L37,16 Z M26,47 L26,27 L36,37.3819947 L26,47 Z M26,23 L26,3 L36,13.3819947 L26,23 Z M23,25.3819947 L13,35 L13,15 L23,25.3819947 Z M14,36.6180053 L24,27 L24,47 L14,36.6180053 Z M14,12.6180053 L24,3 L24,23 L14,12.6180053 Z"/></svg>
