<svg xmlns="http://www.w3.org/2000/svg" enable-background="new 0 0 50 50"><path fill="rgba(0, 0, 0, 0.7)" d="M25,50 C38.8071187,50 50,38.8071187 50,25 C50,11.1928813 38.8071187,0 25,0 C11.1928813,0 0,11.1928813 0,25 C0,38.8071187 11.1928813,50 25,50 Z M12.0249428,9.0476651 C12.3141393,6.65218376 22.6576877,3.46789697 24.6250188,4.95365223 C26.5923499,6.43940749 30.9904897,31.3354051 30.8923918,32.7517982 C30.7942939,34.1681913 24.4866019,36.0849583 23.1976885,35.2519589 C21.9087752,34.4189594 11.7357462,11.4431464 12.0249428,9.0476651 Z M30,46 C32.7614237,46 35,43.7614237 35,41 C35,38.2385763 32.7614237,36 30,36 C27.2385763,36 25,38.2385763 25,41 C25,43.7614237 27.2385763,46 30,46 Z"/></svg>
