<svg xmlns="http://www.w3.org/2000/svg" enable-background="new 0 0 50 50"><path fill="rgba(0, 0, 0, 0.7)" d="M0.867753986,18.4465779 C0.301919729,20.535198 0,22.7323404 0,25 C0,38.8071187 11.1928813,50 25,50 C38.8071187,50 50,38.8071187 50,25 C50,22.8392552 49.7258787,20.7425349 49.2105153,18.7427181 L49.2105153,18.7427181 C48.538337,20.2224711 46.6232912,22.15636 46.6232912,23.4861376 C46.6232912,25.5048029 45.5385918,27.5764406 43.6016695,28.75824 C42.1230869,29.6603866 39.7521148,30.2698135 37.6974714,30.2698135 C35.2868361,30.2698135 32.6622717,29.5178369 31.1016688,28.3187868 C29.5896672,27.1570784 27.9724726,25.2378089 27.9724726,23.4861376 C27.9724726,22.8621268 27.7822489,21.7270172 26.8494257,20.9959029 C26.4801314,20.7064628 25.8250883,20.6124471 25.3845816,20.6521988 C25.2778496,20.6618304 25.2017387,20.6784946 25.1479893,20.6962618 C25.1596857,20.8111806 25.2128286,20.7676145 25.0987359,20.7153792 C24.9846431,20.7676145 25.0377861,20.8111806 25.0494824,20.6962618 C24.995733,20.6784946 24.9196221,20.6618304 24.8128901,20.6521988 C24.3723834,20.6124471 23.7173403,20.7064628 23.348046,20.9959029 C22.4152229,21.7270172 22.2249991,22.8621268 22.2249991,23.4861376 C22.2249991,25.2378089 20.6078045,27.1570784 19.095803,28.3187868 C17.5352001,29.5178369 14.9106356,30.2698135 12.5000003,30.2698135 C10.4453569,30.2698135 8.07438485,29.6603866 6.59580222,28.75824 C4.65887992,27.5764406 3.57418052,25.5048029 3.57418052,23.4861376 C3.57418052,22.0656518 1.38896173,19.9558272 0.867753986,18.4465779 L0.867753986,18.4465779 Z M1.30926164,16.9944568 C4.64697104,7.11367654 13.9927414,0 25,0 C35.967095,0 45.2848047,7.06185813 48.6539624,16.8864078 C46.6163815,16.0781467 39.6975624,16.0154343 37.6974714,16.0154343 C35.1134132,16.0154343 28.6339377,16.5764281 25.9344717,17.7677155 C25.7850102,17.8336735 25.2649329,17.996224 25.0987359,18.2171162 C24.9325388,17.996224 24.4124615,17.8336735 24.263,17.7677155 C21.563534,16.5764281 15.0840585,16.0154343 12.5000003,16.0154343 C10.4142157,16.0154343 2.97918939,16.0836356 1.30926164,16.9944568 L1.30926164,16.9944568 Z M37.502159,28.7668228 C33.726775,28.7668228 29.7369613,26.7294814 29.7369613,23.4933853 C29.7369613,22.0499356 28.5224568,20.1287741 29.7369613,19.0952301 C31.2452765,17.811653 35.4107724,17.5779343 37.5021592,17.5779343 C39.4303421,17.5779343 43.2423745,17.9945223 44.4851533,19.0952301 C45.6757366,20.1497092 44.9734346,22.3494974 44.9734346,23.9328384 C44.9734346,27.1689346 41.277543,28.7668228 37.502159,28.7668228 Z M12.6953127,28.7668228 C16.4706967,28.7668228 20.4605105,26.7294814 20.4605105,23.4933853 C20.4605105,22.0499356 21.675015,20.1287741 20.4605105,19.0952301 C18.9521952,17.811653 14.7866993,17.5779343 12.6953125,17.5779343 C10.7671296,17.5779343 6.95509719,17.9945223 5.71231843,19.0952301 C4.52173515,20.1497092 5.22403717,22.3494974 5.22403717,23.9328384 C5.22403717,27.1689346 8.91992867,28.7668228 12.6953127,28.7668228 Z"/></svg>
